<svg width="20" height="20" viewBox="0 0 20 20" fill="none" xmlns="http://www.w3.org/2000/svg">
<path d="M14.4024 11.8634C16.0946 9.11056 15.9223 5.54642 13.8763 2.95639C11.6211 0.101662 7.69143 -0.807802 4.41372 0.766427C1.13601 2.34066 -0.614957 5.97844 0.197438 9.5261C1.00983 13.0738 4.16878 15.5845 7.80409 15.5719L14.4024 11.8634ZM14.4024 11.8634L14.3936 11.8573L13.8252 12.68L14.6033 13.3081C14.619 13.2887 14.6345 13.2693 14.65 13.2498L14.9361 13.4475C15.1096 13.5586 15.2698 13.6892 15.4138 13.8368L14.4024 11.8634ZM14.7062 14.5434L18.8162 18.6583L18.6632 18.8115L14.533 14.6764C14.5329 14.6763 14.5328 14.6762 14.5327 14.6761C14.4524 14.5956 14.3796 14.5081 14.315 14.4145L14.3039 14.3984L14.2923 14.3828L14.0365 14.0415L14.3677 14.2702L14.382 14.2801L14.3965 14.2894C14.506 14.3596 14.6072 14.442 14.698 14.5351L14.698 14.5352L14.7062 14.5434ZM13.047 12.0519L12.5294 12.6932L12.0343 13.0891C10.833 14.0495 9.34136 14.5723 7.80438 14.5718L7.80061 14.5719C4.63367 14.5829 1.8804 12.3955 1.17221 9.30288C0.463962 6.21003 1.99067 3.03953 4.84666 1.66785C7.70229 0.296339 11.1262 1.08842 13.0916 3.57627C15.0572 6.06452 15.0387 9.58454 13.047 12.0519ZM1.24957 7.78617C1.24957 11.4087 4.18299 14.3474 7.80409 14.3474C9.54284 14.3474 11.2101 13.6558 12.4393 12.4252C13.6683 11.1947 14.3586 9.52592 14.3586 7.78617C14.3586 4.16365 11.4252 1.22496 7.80409 1.22496C4.18299 1.22496 1.24957 4.16365 1.24957 7.78617Z" stroke="white" stroke-width="2"/>
</svg>
